# xmcd
#
# Track frame offsets:
#	150
#	16275
#	33675
#	50025
#	68025
#	79575
#	98850
#	116775
#	135825
#	154575
#	172575
#	192075
#	213300
#	231000
#	252150
#
# Disc length: 3658 seconds
#
# Revision: 0
# Processed by: cddbd v1.5.2PL0 Copyright (c) Steve Scherf et al.
# Submitted via: audiograbber 1.83.01
#
DISCID=ba0e480f
DTITLE=Sweet Georgia Brown - SGB0017
DYEAR=1900
DGENRE=KARAOKE
TTITLE0=Alabama - God Must Have Spent (A Little More Time On You)
TTITLE1=Vince Gill And Patty Loveless - My Kind Of Woman
TTITLE2=George Strait - Write This Down
TTITLE3=Lonestar - Amazed
TTITLE4=John Michael Montgomery - Hello Love
TTITLE5=Faith Hill - Secret Of Life
TTITLE6=Jo Dee Messina - Lesson In Leaving
TTITLE7=Reba McEntire - One Honest Heart
TTITLE8=Mary Chapin Carpenter - Almost Home
TTITLE9=Alan Jackson - Gone Crazy
TTITLE10=Trisha Yearwood - I'll Still Love You More
TTITLE11=Tim McGraw - Please Remember Me
TTITLE12=Shania Twain - That Don't Impress Me Much
TTITLE13=Martina McBride - Whatever You Say
TTITLE14=Shania Twain - From This Moment
EXTD=
EXTT0=
EXTT1=
EXTT2=
EXTT3=
EXTT4=
EXTT5=
EXTT6=
EXTT7=
EXTT8=
EXTT9=
EXTT10=
EXTT11=
EXTT12=
EXTT13=
EXTT14=
PLAYORDER=
